<svg width="150" height="150" viewBox="0 0 150 150" xmlns="http://www.w3.org/2000/svg">
  <path d="M50.5,21.94C32.24,23.49 25.52,28.93 23.05,44.13C21.67,52.6 21.7,100.04 23.09,107.53C24.9,117.29 28.08,122.41 34.22,125.39C41.58,128.97 50.24,129.96 74.5,129.97C117.27,130 125.51,126.69 128.99,108.11C130.38,100.67 130.28,51.28 128.85,43.08C126.93,32.02 121.02,25.39 111,23.05C105.29,21.71 62.4,20.92 50.5,21.94M40.54,54.94C39.83,56.09 40.71,62.48 42.69,70.5C46.82,87.26 59.45,98.14 76,99.18L80.5,99.47 80.79,91.73C81.06,84.54 81.24,84 83.27,84C86.69,84 94.64,90 97.11,94.46C98.34,96.68 99.83,98.83 100.43,99.25C101.32,99.87 112,100.1 112,99.5C112,99.39 111.47,97.79 110.83,95.95C108.55,89.4 101.95,81.35 96.2,78.08C94.72,77.24 95.18,76.42 99.7,71.81C104.71,66.69 108.93,59.39 108.98,55.75C109,54.31 108.1,54 103.95,54C99.34,54 98.76,54.27 97.2,57.1C93.84,63.22 89.88,68.1 86.72,70.03C81.44,73.25 81.11,72.86 80.79,63.25L80.5,54.5 75,54.5L69.5,54.5 69.22,69.75C69.07,78.14 68.71,85 68.42,85C66.59,85 61.7,81.47 59.46,78.53C56.57,74.75 53,64.5 53,59.99C53,54.72 52.21,54 46.45,54C43.52,54 40.86,54.42 40.54,54.94" fill="currentColor" fill-rule="evenodd"/>
</svg>