<svg width="150" height="150" viewBox="0 0 150 150" xmlns="http://www.w3.org/2000/svg">
  <path d="M64.5,16.68C37.4,22.75 18.62,44.29 16.3,71.98C14.88,88.85 23.16,108.99 36.19,120.39C47.39,130.18 61.14,135.25 76.53,135.27C110.79,135.29 137.87,106.4 135.72,72.11C134.94,59.6 131.46,49.8 124.51,40.5C119.82,34.24 119.83,34.24 113.5,29.12C102.1,19.9 90.64,15.93 75.89,16.12C70.73,16.18 65.6,16.43 64.5,16.68M90.5,54.91C86.65,56.47 79,59.65 73.5,61.97C68,64.29 59.68,67.77 55.01,69.7C41.97,75.08 38.83,76.88 39.19,78.77C39.56,80.65 48.56,83.84 53.8,83.94C57.92,84.01 59.68,83.09 74.4,73.12C80.95,68.69 86.75,65.34 87.29,65.68C87.83,66.01 83.47,71.02 77.59,76.8C71.28,83.02 67.04,87.96 67.22,88.91C67.38,89.78 72.41,93.76 78.38,97.75C89.68,105.29 94.04,106.67 95.86,103.25C97.25,100.65 102.94,66.51 103.24,59L103.5,52.5 100.5,52.28C98.85,52.17 94.35,53.35 90.5,54.91" fill="currentColor" fill-rule="evenodd"/>
</svg>