<svg xmlns="http://www.w3.org/2000/svg" 
     width="200" 
     height="200" 
     viewBox="0 0 2048 2048">
  <path d="m967,2052.4c-5.8,-0.4 -16,-0.8 -22.6,-0.9 -19.8,-0.2 -55.5,-4.4 -95.4,-11.2 -163.8,-27.9 -320.4,-97.1 -453.3,-200.1C338.9,1796.1 282.1,1741.2 235.6,1685.4c-129.2,-155 -210,-344.5 -231.5,-542.5 -2.8,-25.5 -3.6,-52.3 -3.6,-113.5 0,-78.5 1.3,-101.9 8.1,-149 45.9,-317.2 242.2,-597.9 525.9,-752.5 111,-60.5 232.3,-99.8 358,-115.9 39.8,-5.1 86.7,-7.1 148,-6.2 57.5,0.8 79.8,1.9 106,5.1 87.4,10.6 171.5,31.9 253,64.1 112.2,44.3 215.9,108.4 308,190.3 19,16.9 56.3,54 75.1,74.7 142.7,157.1 232.4,351.5 258.9,560.5 3.1,24.2 4.2,39.7 5.5,75.4 2.5,66.3 0.3,136.1 -5.5,182.4C2022.9,1305.2 1973,1445.3 1894.3,1571.4 1863.9,1620.1 1828.2,1667.7 1788.2,1712.9 1771.2,1732 1721.1,1781.7 1701,1799.3 1632.3,1859.4 1561.2,1907.3 1481,1947.2c-61.8,30.8 -117.9,52.6 -182,70.5 -63.7,17.9 -140.8,31.2 -194,33.7 -27.3,1.3 -124.1,1.9 -138,0.9zM1316.3,1851.2c4,-0.6 7.4,-1.3 7.6,-1.5 0.2,-0.2 -6.2,-7.1 -14.3,-15.2L1295,1819.7 1295,1802.8c0,-9.3 0.4,-17.6 0.9,-18.3 0.5,-0.8 3.2,-1.6 6.5,-1.9L1308,1782.1L1308,1777.4 1308,1772.6l-5.6,-0.5c-3.3,-0.3 -6,-1 -6.5,-1.9 -0.5,-0.8 -0.9,-5.1 -0.9,-9.7L1295,1752.2 1289.8,1752.6 1284.5,1752.9l-0.3,8.8c-0.3,8.4 -0.4,8.8 -2.8,9.8C1280,1771.9 1277.3,1772.4 1275.4,1772.4L1272,1772.4v5,5h3.4c1.9,0 4.6,0.4 6,1L1284,1784.3L1284,1800.8 1284,1817.4h-2.5c-3.8,0 -11.5,-4.3 -16.2,-9.2 -5.5,-5.6 -9,-13.6 -10.3,-23.1 -3.7,-26.8 10.7,-47.6 34.8,-50.3L1295.5,1734.1 1310,1719.8c8,-7.9 14.2,-14.6 13.9,-14.9C1322.2,1703.2 1308,1702.2 1293.5,1702.6c-12.7,0.4 -18,1 -25.7,3.1 -37.4,9.8 -57.8,38.1 -55.4,77.2 1.2,19.4 7.3,34.1 19.1,46.1 11.4,11.5 25.4,18.4 44.2,21.8 9.6,1.7 30.9,2 40.7,0.5zM636,1826.9c0,-11.8 0.4,-22.6 1,-24l1,-2.6 17.7,0.3 17.7,0.3 14,23.7 14,23.7 21.4,0c16.7,0 21.3,-0.2 20.9,-1.2 -0.3,-0.7 -7.6,-12.5 -16.3,-26.2 -8.7,-13.7 -16,-25.7 -16.2,-26.6 -0.3,-1.1 1.5,-2.8 5.5,-5.2 7.3,-4.5 13.7,-11.3 16.4,-17.5 3,-6.7 3.7,-25.5 1.4,-33.8 -3.3,-11.7 -12.9,-21.8 -25,-26.3 -13.1,-4.9 -17.5,-5.3 -65.3,-5.8L599,1705.1L599,1776.7 599,1848.4h18.5,18.5zM638,1771.4c-1.2,-0.8 -1.5,-4.1 -1.5,-18.6 0,-14.5 0.3,-17.7 1.5,-18.6 2.1,-1.4 42.4,-0.5 47.3,1 2.1,0.7 5.4,2.6 7.3,4.4 6.4,6 6.9,18.4 0.8,25.5 -4.5,5.4 -9.6,6.4 -33,6.8 -13.1,0.2 -21.6,0 -22.5,-0.6zM803,1836.1c2.5,-6.4 5,-12.2 5.6,-12.8 0.7,-0.7 12.2,-1 35.4,-0.8l34.3,0.3 5.1,12.5 5.1,12.5 20.8,0.3c19.5,0.3 20.8,0.2 20.3,-1.5 -0.8,-3 -59.9,-138.7 -61,-140 -0.7,-0.9 -7,-1.3 -24.8,-1.3 -17.8,0 -24,0.3 -24.7,1.3 -1.1,1.4 -61.3,140.1 -61.3,141.1 0,0.4 9.1,0.5 20.2,0.4l20.2,-0.3zM822.6,1792c-1.9,-1.4 -1.6,-2.3 8.5,-28.3 8.5,-21.7 10.9,-26.9 12.3,-26.9 1.5,0 3.9,5.2 12.3,26.8 8,20.5 10.2,27.1 9.3,28 -1.9,1.9 -40,2.2 -42.5,0.3zM1055.5,1845.1c37.5,-10.1 56.3,-35.4 54.2,-72.7 -1.2,-20.7 -5.8,-32.2 -17.6,-44.1 -13.2,-13.2 -30,-19.8 -55.7,-21.9C1029.4,1705.8 1008.2,1705.4 989.4,1705.4L955,1705.4v71.6,71.6l45.3,-0.4 45.3,-0.4zM995,1814.8c-1.3,-3.5 -1.3,-71.5 0,-75l1,-2.7 21.2,0.4c23.5,0.5 27.9,1.3 36.4,7 10.5,7.1 14.9,17 14.8,33.2 -0.1,12.5 -2.6,19.7 -9.2,26.7 -9.1,9.7 -20,12.8 -46,12.8L996,1817.4ZM1181,1776.9L1181,1705.4h-20,-20v71.5,71.5h20,20zM1347.4,1846.4c11.5,-4.9 24.6,-15.8 31.8,-26.4 9.2,-13.5 13.1,-26.4 13,-43.1 -0.1,-13.4 -2.4,-23.1 -8.4,-34.8 -6,-11.7 -20,-25.6 -31.7,-31.5C1347.6,1708.3 1343.1,1706.4 1342.1,1706.4c-0.9,0 -3.2,1.5 -5,3.4l-3.3,3.4 3.8,1.2c14.5,4.7 30.6,18.2 37.6,31.7 18.2,34.9 3.1,77.1 -33,92.3 -3.5,1.5 -6.6,3 -7,3.3 -0.9,0.9 4.6,6.7 6.3,6.7 0.7,0 3.3,-0.9 5.8,-2zM1335.5,1827.4c10.5,-3.7 22.1,-13.4 27.9,-23.5 6.7,-11.6 8.6,-29.5 4.5,-42.8 -5.3,-17.3 -21.7,-32.3 -39.3,-36l-5.7,-1.2 -4,3.9C1316.8,1730 1315,1732.1 1315,1732.4c0,0.4 2.8,0.9 6.3,1.2 17.6,1.5 32.7,13.9 37.9,31.1 2.6,8.6 2.2,20.4 -1,28.7 -5.9,15.2 -20.5,26.2 -36.9,27.7 -3.4,0.3 -6.3,0.8 -6.3,1.1 0,0.3 1.7,2.3 3.8,4.4 3.4,3.5 4.1,3.8 7.6,3.3 2.1,-0.3 6.3,-1.4 9.2,-2.5zM1335.4,1802.4c8.2,-5.7 12.6,-14.5 12.6,-25.3 -0,-10.5 -4.2,-19 -12.3,-24.9C1330,1748.1 1329,1748.4 1329,1754.2c0,4 0.4,5.2 2.4,6.4 3.6,2.3 7.6,11.2 7.6,16.6 -0,5.6 -2.7,11.7 -6.8,15.6C1329.5,1795.4 1329,1796.6 1329,1800.6 1329,1803.3 1329.5,1805.4 1330.1,1805.4c0.6,0 3,-1.3 5.3,-2.9zM1725.7,1643.2C1713.4,1617.2 1691.7,1571.7 1677.6,1542.2 1663.5,1512.7 1652,1488.1 1652,1487.5c0,-1 34.5,-39.6 71.7,-80.4C1732.1,1397.9 1739,1390 1739,1389.5c0,-0.9 -59.7,-13 -66.4,-13.4L1668.6,1375.9 1640.6,1406.9c-15.4,17.1 -35.7,39.6 -45.1,50 -9.4,10.4 -17.7,19.1 -18.6,19.3 -1,0.2 -1.8,-0.6 -2.2,-2 -0.3,-1.3 -0.6,-27.6 -0.6,-58.6 -0,-44.1 -0.3,-56.4 -1.3,-56.7C1570.8,1358.2 1516.3,1350.4 1513.5,1350.4L1511,1350.4v150.5,150.5l3.3,0.6c4.6,0.8 58.1,8.5 59,8.5 0.4,0 0.9,-20.2 1,-44.8l0.3,-44.8 2.9,-3.4c7.2,-8.6 30,-31 31.3,-30.7 1.2,0.3 22.3,43.6 61.8,127 6.8,14.3 7.1,14.8 10.5,15.4 1.9,0.3 17.7,3.4 35,6.8 17.3,3.4 31.6,5.9 31.8,5.5 0.2,-0.4 -9.8,-22 -22.1,-48zM374.5,1679c53.4,-13.3 81.3,-40.9 94.4,-93.1 5.5,-22 5.4,-20.1 5.8,-129.7L475.1,1354.4h-2.2c-1.2,0 -15.2,2 -31,4.5 -15.9,2.5 -29.1,4.5 -29.4,4.5 -0.3,0 -0.6,45.3 -0.8,100.8 -0.3,93.3 -0.5,101.2 -2.1,106.8 -6.5,21.9 -20.5,35.3 -40.4,38.7 -6.4,1.1 -8.2,1 -13.9,-0.5 -10.4,-2.7 -16.8,-8.4 -22,-19.5l-2.5,-5.3 -9.2,4.9c-5,2.7 -18.5,9.8 -30,15.7 -11.5,6 -21.1,11.5 -21.4,12.3 -0.7,1.9 3.1,15.1 6.7,22.9 10.4,22.5 28.1,35.9 54,40.8 11.1,2.1 30.8,1.3 43.5,-1.9zM1385.5,1640.3c15.7,-2.2 29.2,-6.6 40.3,-13.2 8.2,-4.8 21.8,-18.9 28,-29 9.6,-15.5 16.7,-36.8 17.9,-53.5l0.6,-8.2 -3.4,-0.6c-6.4,-1.1 -53.4,-6.5 -56.6,-6.6 -2.9,-0 -3.3,0.4 -4.3,4.2C1402.4,1555.7 1386.4,1568.9 1363.5,1570.1 1337.3,1571.5 1315.9,1558.6 1304.2,1534.4 1296.1,1517.7 1293,1501.6 1293,1476.9c0,-45.6 14.5,-73.9 41.5,-81.1 2.8,-0.7 9.1,-1.3 14,-1.3 27.9,-0 46.2,14.3 55.1,43.3l1.8,5.9 13.5,-0.6c7.4,-0.3 21.5,-0.9 31.3,-1.2l17.7,-0.6 -0.6,-2.6c-4.2,-18.5 -8.7,-31.8 -14.9,-44.2 -17,-33.8 -43.5,-57 -75.7,-66.3 -12.9,-3.8 -24.2,-4.9 -41.3,-4.3 -28.7,1 -47.6,8.5 -66.6,26.5C1252,1366 1240.7,1386.6 1233.5,1414.9 1228.7,1433.5 1227,1448.9 1227,1472.9c0,45.7 9.5,82.2 29,111.8 6.2,9.4 20.8,24.9 29.8,31.6 17.2,12.9 39.5,21.1 66.7,24.4 6.4,0.8 26.3,0.6 33,-0.3zM714.5,1628.3c13.7,-1.1 25.3,-2 25.8,-2 0.4,0 0.8,-22.2 0.8,-49.4 0,-54.1 -0.2,-52.6 5.8,-52.6 1.5,-0 12.4,-0.7 24.4,-1.5 11.9,-0.8 22.3,-1.2 23.1,-1 1.7,0.7 1,-0.8 24.9,52.9 11,24.8 20.1,45.1 20.2,45.3 0.7,0.7 67.6,-2.3 67.6,-3 0,-0.5 -11.7,-25.8 -26,-56.4 -14.3,-30.5 -26,-56.3 -26,-57.3 0,-1.1 2.8,-4.1 6.6,-7.2 16.4,-13.3 25.9,-30.8 30,-54.9 2.4,-14.2 1.6,-44 -1.4,-55.5 -4.8,-18.1 -11.3,-29.9 -23,-41.5 -10,-9.9 -18.1,-14.9 -30.6,-18.9 -15.7,-5 -24.5,-5.5 -60.5,-3.1 -33,2.2 -78.4,5.6 -88.3,6.6l-5.8,0.6L682,1480.5 682,1631.4l3.8,-0.5c2.1,-0.3 15,-1.4 28.7,-2.5zM741.6,1460.8C741.3,1459.9 741,1443.6 741,1424.5c0,-26.2 0.3,-35.1 1.3,-36.4 1,-1.3 5.4,-1.9 24.1,-3.2 34.5,-2.4 43,-2 51.7,2.5 10.9,5.5 15.9,20 13.8,39.7 -1.5,13.7 -7,22.1 -18.1,27.3 -7.6,3.6 -14.1,4.6 -42.3,6.4 -28.8,1.9 -29,1.9 -29.8,-0.1zM1094,1621.5c24.9,-5.8 42.7,-15.7 59.1,-32.9 25.4,-26.7 38.9,-67.6 38.9,-118.3 0,-75.4 -30.1,-131.5 -82,-153 -18,-7.4 -43.3,-11.1 -63.8,-9.1 -31.9,3.1 -56.5,14.3 -76.2,34.8 -21.9,22.7 -34.3,51.1 -40.2,91.9 -2,13.6 -1.6,53.1 0.5,67.5 10.5,68.9 46.7,110 106.2,120.5 12,2.1 46.2,1.3 57.5,-1.3zM1049.2,1553.3c-32,-5.8 -50.7,-31.6 -54.2,-74.9 -1.1,-14.1 -0.2,-30.6 2.6,-43.9 4.8,-23.3 17.5,-42 34,-50.1 21,-10.4 50.8,-6.8 67.7,8.1 19,16.7 28.9,50.7 25.7,87.9 -4,46.5 -25.1,72 -60.9,73.5 -5.3,0.2 -12.1,-0 -14.9,-0.5zM553.5,1553.8c20.4,-2.5 48,-5.8 61.5,-7.3l24.5,-2.7 0.3,-34.8 0.3,-34.8h-3.6c-4.4,0 -56.4,5.9 -93.3,10.5 -15,1.9 -27.5,3.5 -27.8,3.5 -0.3,0 -0.5,15.8 -0.5,35 0,19.3 0.3,35 0.8,35 0.4,0 17.4,-2 37.8,-4.5zM88.2,1343c4.8,-1.3 9.1,-2.7 9.7,-3.1 0.8,-0.5 1.1,-48.9 1.1,-174.9 0,-136.3 0.3,-174.7 1.3,-176.6 4.4,-8.7 17.7,-8.3 21.4,0.6 1.1,2.7 1.4,32.1 1.4,174.2v170.9l6.3,-1.4c3.4,-0.8 7.9,-1.9 10,-2.4l3.8,-1L143,1135.3c0,-213.2 -0.4,-198.1 6,-201.4 6.2,-3.2 13.6,-1.1 16.4,4.8 1.5,3.2 1.6,19.7 1.6,194.6L167,1324.4l2.3,-0.5c3.4,-0.8 16.8,-3.5 17.3,-3.5 0.2,0 0.4,-111.2 0.4,-247 0,-211.2 0.2,-247.5 1.4,-250.4 3.6,-8.6 17.6,-8.6 21.2,0 1.2,2.9 1.4,38.9 1.4,247.9 0,134.5 0.3,244.5 0.7,244.5 0.4,0 4.9,-0.7 10,-1.7L231,1312L231,1183.1c0,-141.5 -0.4,-133.3 5.9,-137 3.6,-2.1 8.3,-2.2 12.1,-0.2 6.3,3.3 6,-5.1 6,134.4L255,1307.4l2.8,-0.1c1.5,-0 5.9,-0.6 9.8,-1.3l7,-1.2 0.5,-167.7 0.5,-167.7 2.1,-2.8c4.4,-6 13.3,-6.3 18.5,-0.7l2.4,2.6 0.3,165.9L299,1300.4h2.5c1.3,0 5.8,-0.5 10,-1.1L319,1298.1L319,1083.7c0,-179.9 0.2,-214.9 1.4,-217.7 2.9,-6.9 10.1,-9.5 16.7,-6.1C343.5,863.2 343,846.1 343,1080.8L343,1294.4h2.5c1.4,0 5.9,-0.5 10,-1.1L363,1292.1v-45.3c0,-24.9 0.3,-46.7 0.6,-48.4 0.7,-3.6 3.1,-4.2 3.8,-0.9 0.3,1.2 1.7,7.7 3.1,14.3 3.1,14.5 8.2,33.2 12.9,47.5 3,8.9 3.5,11.9 3.5,19.7 0,5.1 0.4,9.4 0.8,9.7 0.4,0.3 5,-0.1 10.3,-0.7 7.4,-0.9 9.4,-1.5 9.2,-2.7 -0.2,-0.8 -2.3,-7 -4.8,-13.8 -14.1,-39.1 -23,-78.3 -24.9,-110.6 -2.8,-45.4 16.1,-104.1 46.8,-145.2 8.2,-11 32.8,-36.4 42,-43.3 8.9,-6.7 19.7,-12.5 32.8,-17.5 15.2,-5.9 53,-16.3 65.1,-17.9 25.5,-3.4 82.4,-5.1 125.9,-3.7 33.9,1.1 55.5,-0 67,-3.4 19.1,-5.7 44,-23.9 82.9,-60.6 23.1,-21.8 30.4,-28.1 40.6,-35.3 41.6,-29.2 79.4,-42.6 125.2,-44.3 19.2,-0.7 25.9,0.3 35.6,5.4 7.9,4.1 15.3,11.7 19.1,19.5 5.7,11.7 5.4,34 -0.7,46.2 -3.5,7 -6.4,10 -22.5,23.6 -20,16.9 -36.4,33.3 -42.9,43 -5.3,7.9 -8.4,17.1 -10.6,30.8 -1.2,7.8 -0.6,26.7 0.9,28.2 0.7,0.7 93.9,-37.7 311.2,-128.3l310.2,-129.3 3.3,-8.6c10.1,-26 21.8,-41.3 37.2,-48.7 5.8,-2.8 9.2,-3.6 17.8,-4.5 13.2,-1.4 21.6,-0.2 28.5,4.1l4.8,3 0.6,-4.3c0.8,-5 3.4,-8.8 7.8,-11.1 6.6,-3.4 23.5,-0.2 29.6,5.7l2.4,2.3 1.5,-2.4c3.6,-5.7 11,-11.8 16.3,-13.4 10.3,-3.1 21.7,-1 27.7,5.1 1.9,1.9 3.5,3.3 3.6,3.2 0.1,-0.2 1.6,-2.4 3.3,-4.9 6.1,-9.1 14.1,-13.8 23.3,-13.8 7.8,-0 14.1,2.4 20.1,7.8l5.2,4.6 1.6,-2.4c8.5,-12.9 19.2,-15.7 39.7,-10.5 21.1,5.3 41.2,18.2 46.8,29.8 3.3,6.9 5.1,20.5 5,38.7 -0.1,23.2 -4.3,36.1 -15.3,46.3 -6.3,5.8 -11.1,8.1 -25,11.9 -9.4,2.6 -36.7,3.1 -46.7,0.9l-6.2,-1.4 -13.8,13C1778.4,823.4 1742.4,849.2 1725.3,851 1718.9,851.6 1712.7,849.9 1695,842.6 1685.4,838.6 1674,835.4 1669.8,835.4 1657.8,835.4 1532.6,886.8 1342,970.1 1248.2,1011.1 1058,1095.3 989.5,1126.2l-11,5 0,7.3c0,5.9 0.6,8.5 2.7,13.1 3.1,6.6 10.4,14.9 16.8,18.9 6.3,4 14.2,3.9 33,-0.6 19,-4.6 28.7,-5.9 37.9,-5.3 18.8,1.3 32.2,10.9 37.1,26.6 5.9,18.6 2.5,36.2 -10.8,55.9 -2.1,3.2 -4.2,6.3 -4.6,7 -0.6,1 1.2,1.3 7.7,1.3h8.5l4.4,-7.8c9,-15.8 12.6,-29.4 11.4,-44 -1.2,-14.3 -5.2,-25.1 -13.2,-34.7l-4.9,-6v-33c0,-29.9 0.2,-33.3 1.8,-35.7 5.9,-9 19.3,-6.7 21.8,3.9 0.5,2.2 0.9,38.4 0.9,80.5l0,76.6 8.7,0.7c4.8,0.4 9,0.3 9.5,-0.1 0.4,-0.4 0.9,-42.2 1.1,-92.7L1148.5,1070.9l6,-2.9c8.1,-3.9 12.1,-4 14.9,-0.3l2.1,2.8 0.3,92.8 0.3,92.8 8.7,0.5c4.8,0.3 9.1,0.3 9.5,0.1C1190.7,1256.4 1191,1210.4 1191,1154.4 1191,1074.2 1191.3,1052.4 1192.3,1051.6 1194.3,1050 1210.2,1043.4 1212.1,1043.4c0.9,0 2,0.7 2.3,1.6C1214.7,1045.8 1215,1093.9 1215,1151.8v105.3l4.6,0.6c2.6,0.3 6.8,0.6 9.5,0.6L1234,1258.4L1234,1146C1234,1057.3 1234.3,1033.4 1235.3,1032.6 1237.3,1031 1253.2,1024.4 1255.1,1024.4c0.9,0 2,0.7 2.3,1.6C1257.7,1026.8 1258,1079.7 1258,1143.4L1258,1259.4L1267.5,1259.4 1277,1259.4L1277,1137c0,-96.7 0.3,-122.6 1.3,-123.3 2.9,-2.2 18.6,-8.5 20.4,-8.1 1.8,0.4 1.9,4 2.4,127.8L1301.5,1260.9l9.3,0.3 9.3,0.3 0,-132.3c0,-72.8 0.4,-132.8 0.8,-133.5 1.1,-1.8 19,-9.5 21,-9.1 1.6,0.3 1.7,8.9 2,138.1 0.2,108.9 0.5,137.9 1.5,138.2 0.7,0.2 5,0.6 9.5,0.8l8.3,0.4 0,-142.1c0,-110.8 0.3,-142.6 1.3,-144.5 1.4,-2.8 18.7,-10.7 21.2,-9.7C1386.8,968.2 1387,985 1387,1116.7v148.4l6.1,0.6c3.4,0.4 7.7,0.6 9.5,0.6L1406,1266.4L1406,1113.9c0,-87.6 0.4,-153.4 0.9,-154.8 1.2,-3.2 20.5,-11.8 22.4,-9.9 1,1 1.3,36.5 1.5,160l0.3,158.8 6.7,0.6c3.7,0.4 8,0.6 9.5,0.6L1450,1269.4L1450,1104.5c0,-133.4 0.2,-165.1 1.3,-165.9 2,-1.7 17.7,-8.2 19.7,-8.2 1,0 2.1,1 2.4,2.3 0.3,1.2 0.6,77.9 0.6,170.4L1474,1271.1l5.3,0.6c2.9,0.3 7.2,0.6 9.5,0.6l4.2,0 0.3,-176.2 0.3,-176.2 10.2,-4.4c8.4,-3.6 10.5,-4.2 11.8,-3.2C1516.8,913.5 1517,934.6 1517,1094.5L1517,1275.4l4.3,0c2.3,0 6.6,0.3 9.5,0.6l5.2,0.6 0.3,-187.4 0.3,-187.4 10.2,-4.4c8.5,-3.7 10.5,-4.2 11.8,-3.1C1559.8,895.5 1560,915.4 1560,1087c0,152.3 0.3,191.5 1.3,191.8 0.7,0.2 5,0.7 9.5,1l8.2,0.6 0.3,-198.3L1579.5,883.9 1589.7,879.7c5.6,-2.4 10.9,-4 11.8,-3.7C1602.8,876.5 1603,896.8 1603,1079.9v203.3l7.8,0.7c4.3,0.4 8.5,0.9 9.5,1.2 1.7,0.5 1.8,-9.9 1.8,-207.9 0,-165.2 0.3,-208.7 1.3,-210 0.7,-0.9 5.5,-3.2 10.6,-5.2 7.2,-2.7 9.7,-3.3 10.7,-2.5 1.1,0.9 1.4,35.7 1.6,214.7l0.3,213.6 5,0.7c2.8,0.4 6.9,0.9 9.3,1.2l4.3,0.5 0,-218.7C1665,935.4 1665.4,852.3 1666,851.4 1667.3,849.2 1674.1,849.7 1682,852.5l6.5,2.3 0.5,218.9 0.5,218.9 2.6,0.7c1.4,0.4 5.6,1 9.2,1.4l6.7,0.7 0.3,-215c0.1,-118.2 0.5,-215.3 0.9,-215.6 0.4,-0.4 5.5,-0.3 11.5,0.2L1731.5,865.9 1732,1082.4l0.5,216.5 6.5,1.1c3.6,0.6 7.7,1.2 9.2,1.3L1751,1301.4 1751.2,1131.6c0.2,-157.8 0.4,-170 2,-172.9 1.7,-3.1 7,-6.4 10.2,-6.4 3.6,0 8.5,3 10.3,6.2 1.7,3.2 1.8,11.5 2.3,175.3l0.5,172 7,1.2c3.8,0.7 8,1.2 9.3,1.3L1795,1308.4L1795,1174.3 1795,1040.3l3.3,-3.6c2.9,-3.1 4,-3.6 7.9,-3.7 5.6,-0.1 9.7,2.6 11.4,7.5 0.9,2.6 1.2,36.4 1.3,138L1819,1313l8.8,1.5c4.8,0.9 9.1,1.4 9.5,1.1 0.4,-0.2 0.8,-55.4 0.8,-122.5 0,-113.2 0.1,-122.2 1.7,-124.9 3.4,-5.8 12.7,-7.5 17.6,-3.2 4.9,4.4 4.7,-0 4.7,132.1v123.9l8.3,1.6c4.5,0.9 8.8,1.6 9.5,1.6 1,-0 1.3,-54.1 1.3,-267.1 0,-236.7 0.2,-267.4 1.5,-270 4.2,-8.1 17.6,-7.7 21.1,0.6C1904.8,790.8 1905,830.1 1905,1060.7v269.4l9.1,2.1c5,1.1 9.3,2.1 9.5,2.1 0.2,0 0.4,-83.8 0.4,-186.3 0,-185 0,-186.3 2,-189.6 2.8,-4.5 8.2,-6.7 13,-5.3 2,0.6 4.7,2.2 6,3.7l2.4,2.6 0.5,190.6 0.5,190.6 6.2,1.8c3.4,1 7.6,2.1 9.3,2.4L1967,1345.5 1967,1194.2c0,-169.9 -0.6,-156.3 7.3,-160.2 3.2,-1.6 4.4,-1.7 7.6,-0.8 2,0.6 4.8,2.3 6.2,3.7l2.4,2.6 0.5,117.2c0.4,96.1 0.7,116.5 1.8,113.2 2.2,-7 10.1,-43.3 13.7,-63.3L2010,1187.3l0.1,-36.7c0,-25.7 0.4,-37.7 1.3,-40.2 0.7,-2 2.7,-4.4 4.7,-5.8 3.4,-2.3 3.5,-2.7 4.2,-10 0.4,-4.2 1,-25.9 1.4,-48.2 0.8,-43.8 -0.1,-71.3 -3.6,-109.5C1989.5,627.1 1817,348.2 1550.6,181.5 1511.7,157.1 1458.3,129.3 1416,111.2 1308.5,65.2 1197.7,39.3 1079.5,32.4c-21.9,-1.3 -90,-1.3 -112,-0 -119.4,6.9 -232,33.7 -342.5,81.5 -20.8,9 -63.7,30.2 -84,41.6 -93.8,52.5 -174.8,115.9 -248.1,194.2 -82.5,88.2 -150.7,195.3 -195.7,307.2 -40.2,99.9 -62.5,198.9 -70.4,311.5 -1.5,21.4 -1.5,101 -0.1,120.5 1,13.5 1.2,14.2 4,17.2 1.7,1.8 3.2,4.8 3.6,7 0.3,2.1 0.6,16 0.6,30.8 0,24.1 0.3,28.7 2.5,42.5 4.9,30.1 14.6,77.5 16.6,81 0.5,0.8 0.9,-49.4 0.9,-112.7l0,-114.2 2.6,-3.1c1.4,-1.7 4.3,-3.6 6.4,-4.2 3.3,-1 4.4,-0.9 7.7,0.7 8,3.9 7.3,-9.7 7.3,160.1 0,83.2 0.1,151.3 0.3,151.3 0.1,0 4.1,-1.1 8.9,-2.4zM364.1,1109c-0.8,-2 -1,-60.1 -0.8,-200 0.2,-162.1 0.5,-197.6 1.6,-199.7 1.9,-3.6 6.2,-5.9 11.2,-5.9 3.4,0 4.8,0.6 7.6,3.4l3.4,3.4 -0,170.4 -0,170.4 -4.1,9.5c-4.9,11.3 -11,29.7 -13.4,40.3 -0.9,4.2 -2.3,8.4 -3,9.4 -1.3,1.7 -1.4,1.6 -2.4,-1zM407.5,1006.1c-0.3,-1.8 -0.5,-107.4 -0.3,-234.8 0.2,-189 0.5,-231.9 1.6,-233.8 1.8,-3.1 7,-6.2 10.5,-6.2 4.1,-0 8.4,2.6 10.4,6.3 1.7,3.1 1.8,14.9 1.8,225.8L431.5,986.1l-6.5,6.9c-3.6,3.8 -8.1,9 -10,11.6 -4.2,5.6 -6.7,6.1 -7.5,1.5zM452.1,961.5c-1.7,-3.2 -1,-303.8 0.8,-306.9 1.8,-3.1 7.1,-6.2 10.7,-6.2 3.6,0 8.9,3 10.7,6.2 1.1,1.9 1.4,29.5 1.6,145.8 0.2,78.9 0,144.9 -0.3,146.5 -0.5,2.5 -2.3,4.1 -10.6,9.5 -5.5,3.6 -10.4,6.6 -10.9,6.8 -0.5,0.2 -1.3,-0.6 -1.9,-1.7zM496,833.8c0,-116.3 -0.4,-109.7 6.2,-113 6.6,-3.4 14.8,0.2 16.8,7.5 1.2,4.2 1.3,200.5 0.1,203.5 -0.5,1.3 -3.5,2.8 -9.7,4.7 -4.9,1.5 -9.9,2.8 -11.2,2.8L496,939.4ZM540.7,925.7C540.3,925.3 540,904.4 540,879.2L540,833.4l3.1,-3.5c3.9,-4.5 8.4,-5.5 13.6,-2.9 7.3,3.6 7.3,3.5 7.3,50.9 -0,23.1 -0.4,42.6 -0.8,43.3 -0.5,0.7 -4.8,2.2 -9.7,3.3 -9.5,2.1 -11.7,2.3 -12.8,1.3zM584.5,919.2c-0.3,-0.8 -0.4,-26.2 -0.3,-56.5L584.5,807.5l2.4,-2.6c1.3,-1.4 4.1,-3.1 6.2,-3.7 3.1,-0.9 4.3,-0.8 7.6,0.8 7.5,3.7 7.3,2.1 7.3,61.9 -0,31.6 -0.4,53.6 -1,54.5 -1.3,2.1 -21.8,2.9 -22.5,0.8zM629.8,918.3c-1.6,-1 -1.8,-3.8 -1.8,-36.1 0,-38.4 0.1,-39.4 6,-42.4 6.2,-3.2 13.6,-1.1 16.4,4.8 1.4,3 1.6,8 1.6,37.3 -0,18.8 -0.4,34.5 -0.9,35.3 -1.2,1.8 -18.6,2.7 -21.3,1zM1450.7,776.7C1450.3,776.3 1450,759.4 1450,739.1c0,-41 0,-41.1 6.6,-44.2 7.2,-3.4 15.5,1.1 16.8,9.2 0.8,4.8 0.8,60 0,63 -0.4,1.6 -3,3.2 -10.2,6.3 -9.9,4.2 -11.3,4.6 -12.5,3.4zM1493.7,758.7C1493.3,758.3 1493,745.3 1493,729.7v-28.3l3.1,-3.5c3.9,-4.5 8.4,-5.5 13.6,-2.9 6.7,3.3 7.3,5.6 7.3,31.4 -0,12.4 -0.4,23.1 -0.8,23.7C1515.3,751.4 1497.7,759.4 1495.6,759.4c-0.7,0 -1.6,-0.3 -1.9,-0.7zM1536.7,740.7C1536.3,740.3 1536,721.4 1536,698.6c0,-36.6 0.2,-41.8 1.6,-44.2 4.1,-6.9 13,-7.9 18.8,-2.1l3.1,3.1 0.3,37.7c0.2,29.6 0,38.1 -1,39.3C1557.5,734.1 1540.9,741.4 1538.6,741.4c-0.7,0 -1.5,-0.3 -1.9,-0.7zM1579.5,722.2c-0.3,-0.8 -0.4,-41.1 -0.3,-89.6l0.3,-88.2 3.3,-3.3C1585.6,538.3 1586.7,537.9 1591,537.9c4.3,0 5.4,0.5 8.2,3.3l3.3,3.3 0.3,77.4 0.3,77.4 -3.8,9.3c-3.7,8.9 -4.1,9.4 -8.6,11.6 -6.4,3.1 -10.4,3.8 -11,2.1zM1622.6,666.8C1622.3,665.9 1622,634.2 1622,596.2c0,-75.6 -0.1,-74.2 5.9,-77.3 3.9,-2 10.1,-2 12.9,-0 5.3,3.7 5.2,2.3 5.2,71.7 0,60.1 -0.1,64.5 -1.8,65.9 -1,0.8 -2.6,1.8 -3.7,2.2 -1.1,0.4 -4.9,2.7 -8.6,5.2 -7.4,4.9 -8.4,5.2 -9.3,2.9zM624.3,1255.2c9.3,-3.9 17,-7.6 17.3,-8.3 0.8,-2 -34,-82.1 -35.8,-82.4 -2.1,-0.4 -34,13.2 -35.2,15 -0.6,0.9 4.4,13.8 15.4,39.3 18.4,43.1 18.6,43.4 20.3,43.5 0.7,0 8.8,-3.2 18.1,-7.1zM1045.6,1249.1c12.4,-7.3 25.5,-20.2 27.9,-27.6 2.9,-8.8 0.8,-15.5 -5.2,-17.1 -5.4,-1.5 -10.3,-1.3 -30.7,1.1 -22.4,2.6 -40.2,2.3 -48.3,-0.9 -11.7,-4.6 -34.3,-24 -41,-35.4 -1.9,-3.3 -4.1,-9.2 -5.3,-14.4 -3.4,-14.6 -3.3,-14.5 -3.7,-8.3 -0.6,11.2 5.2,27.7 14.2,40.3 5.6,7.9 18.3,19.7 24,22.5 2.4,1.2 7.7,2.8 11.7,3.7 9.2,2 29.9,1.3 50.4,-1.6 21.5,-3.1 27.8,-2.5 29.1,2.5 1.8,7.3 -11.3,17.8 -42.6,34.3l-11.5,6.1 11.1,0 11.1,0zM872.4,1236c15.3,-11.7 7.6,-33.6 -11.9,-33.6 -16.9,0 -26.1,18.2 -15.5,30.3 4.6,5.3 8.4,6.7 16.6,6.4 6,-0.2 7.7,-0.7 10.8,-3.1zM718.6,1224.4c5.4,-2.5 8.7,-7.2 8.7,-12.5 -0,-3.1 -4,-13.6 -15.8,-41.1 -18,-42.3 -18.8,-43.5 -27.6,-43.5 -9.3,0 -16.2,6 -16.2,14.1 0,2.7 4.6,14.6 15.8,40.6 8.7,20.2 16.4,37.8 17.2,39 1.8,2.8 7,5.3 10.8,5.3 1.6,0 4.8,-0.8 7.1,-1.9zM429.2,1191.5c-1.4,-57.9 13.1,-101.5 46.2,-138.3 21,-23.4 44.4,-41.2 67.7,-51.4 29.4,-12.9 60,-17.7 130.9,-20.4 57.3,-2.2 64.9,-2.7 77.6,-5.5 38.6,-8.7 70.2,-26.9 132.9,-76.9 57.6,-45.9 79.7,-58.9 106.1,-62.5 12.4,-1.7 26.7,1 37.5,7.1 2.2,1.2 4.2,1.9 4.6,1.6 1.3,-1.3 -2.9,-9.7 -6.9,-13.8 -15.1,-15.2 -43.7,-14.1 -77.4,3.2 -22,11.3 -43.3,26.3 -91.9,65 -59,47 -80.8,60 -106.7,64.1 -8.9,1.4 -40.1,1.6 -115.7,0.8 -31.3,-0.3 -46.9,-0.1 -55.5,0.8 -42.3,4.5 -65.6,12.6 -90.5,31.4 -38,28.6 -61.1,63.3 -70,105.3 -2.7,12.8 -3.7,39.7 -2.1,54.5 1.5,13.3 5.3,30.4 9.7,44.2 1.9,5.9 3.6,10.8 3.8,10.8 0.2,0 0.1,-8.9 -0.2,-19.9zM807.3,1194c5.2,-2.2 7.9,-5.9 8.4,-11.3 0.4,-4.4 -0.9,-7.9 -15.8,-42.8 -8.9,-20.9 -17.1,-39.7 -18.1,-41.8 -3.7,-7.2 -12.4,-9.8 -19.9,-5.9 -4.4,2.3 -8.3,9.4 -7.5,13.7 0.6,3.6 34,82.2 35.8,84.3 4,4.8 11,6.4 17,3.8zM891.6,1152.9c3.4,-2.3 6.4,-7.4 6.4,-11.2 0,-3.8 -32.3,-79.9 -35.2,-83.1 -2.7,-3 -8.1,-4.6 -12.3,-3.8 -6.9,1.3 -12.5,9.1 -11,15.4 1.1,4.5 32.7,78.1 34.4,80.2 4.2,5 12.2,6.2 17.7,2.5zM612.3,1114.2c18.3,-31.1 42.1,-50.4 68.4,-55.4 4.1,-0.8 20,-2.1 35.2,-3 45.3,-2.5 67.6,-6.2 98.8,-16.6 18.2,-6 25.6,-11 72.2,-48.8 25.6,-20.7 34.6,-27.6 38.9,-29.7 3.2,-1.5 3.5,-1.5 6,0.3 3.2,2.4 6.7,10.8 9,21.6 2.1,9.6 3.1,8.3 3.1,-3.9 0,-15.7 -3.2,-23.8 -10.5,-26.4 -3.7,-1.3 -4.4,-1.2 -10,1 -7.9,3.2 -22.6,13 -45.4,30.2 -47.4,35.9 -52.2,39.3 -60.6,43.5 -10.3,5.1 -25.4,10.3 -38.1,13.1 -17.1,3.8 -32.4,5.2 -64.9,6.1 -35,0.9 -41,1.8 -55.5,8 -27.3,11.6 -40.6,27.1 -49.4,57.5 -2.4,8.3 -3,11.4 -2.1,10.4 0.2,-0.2 2.4,-3.9 4.9,-8.1zM1271.5,944.5C1459.4,864.2 1613.4,798.3 1613.7,798 1614.2,797.5 1601.5,768.5 1600.1,767.1c-0.7,-0.7 -689.7,289.4 -691.3,291 -0.9,1 18.3,32.1 19.8,32.2 0.7,0 154.9,-65.6 342.8,-145.8zM1751.8,771.5c54.7,-40.2 67.8,-49.1 74.7,-50.9 2.9,-0.8 13.8,-1.5 26,-1.9 31.3,-0.8 39.6,-3.2 42.6,-12.1 1.6,-4.7 0.7,-17.1 -1.7,-24.3 -2.2,-6.5 -5.7,-8.9 -16.7,-11.6 -12.7,-3.1 -12.5,-3.1 -134.7,20.2 -45,8.6 -68.6,12.7 -75.5,13.1 -5.5,0.3 -10.8,0.9 -11.8,1.5 -2.7,1.4 -10,11.8 -19.4,27.6 -6.8,11.5 -8.4,14.9 -7.9,17.1 0.3,1.5 4.5,10.7 9.3,20.4l8.7,17.7 4.1,-0.7c7.2,-1.3 51.3,-0.6 62.6,1 5.8,0.8 11.3,1.5 12.3,1.6 1,0.1 13.4,-8.4 27.5,-18.7zM1675.5,738.9C1670.4,736.7 1667,731.9 1667,726.7c0,-8.5 5.5,-14.4 13.5,-14.4 7.7,0 13.6,5.7 13.7,13.3 0.1,5.7 -2.7,10.2 -7.8,12.7 -4.7,2.3 -6.8,2.4 -11,0.6zM1721.9,727.4c-4.6,-1.3 -7.7,-4 -9.3,-8.1 -2,-5.1 -2,-6.4 0.4,-11.4 2.4,-5 6.5,-7.5 12,-7.5 8.1,0 14,5.7 14,13.5 0,9.1 -8.7,15.9 -17.1,13.5zM1765.1,718.7C1755.2,713.4 1754.6,700.9 1764,694.5c8.7,-5.8 21,1.2 21,12 -0,9.7 -11.4,16.6 -19.9,12.1zM1810.3,710.7C1805.9,708.6 1803,703.6 1803,698.4c0,-13.8 18.1,-19 25.7,-7.4 2.4,3.7 2.3,11.6 -0.3,15.1 -4.2,5.7 -11.9,7.7 -18.1,4.6zM1852.5,700c-5.7,-5.7 -5.8,-13.1 -0.5,-18.5 8.1,-8.1 22,-2 22,9.6 0,3.6 -3.6,9.3 -7,11 -1.4,0.7 -4.4,1.3 -6.8,1.3 -3.6,0 -4.9,-0.6 -7.7,-3.3z" fill="#000000"/>
</svg>