<svg width="150" height="150" viewBox="0 0 150 150" xmlns="http://www.w3.org/2000/svg">
  <path d="M67,21.09C59.26,22.58 47.03,29.32 41,35.41C35.62,40.85 28,52.11 28,54.63C28,55.69 33.6,57.97 36.22,57.99C36.62,58 37.65,56.65 38.5,55C39.94,52.22 40.46,52 45.51,52L50.96,52 50.36,56.39C49.82,60.33 49.99,60.86 52,61.5C54.67,62.35 55.63,61.12 56.54,55.77L57.18,52 66.09,52L75,52 75,61.5L75,71 71.12,71C68.32,71 67.06,71.49 66.62,72.75C66.28,73.71 65.74,75.06 65.42,75.75C64.99,76.66 66.21,77 69.92,77L75,77 75,81.5C75,85.83 75.11,86 78,86C80.89,86 81,85.83 81,81.5L81,77 91.44,77L101.88,77 102.19,80.47C102.49,83.82 102.59,83.9 105,82.7C106.38,82.01 107.64,80.45 107.82,79.22C108.09,77.35 108.77,77 112.09,77C115.35,77 116.86,76.25 120.67,72.75C125.56,68.26 128.94,62.22 128.98,57.91C129.02,53.17 122.92,42.85 115.95,35.88C103.03,22.97 85.21,17.58 67,21.09M70.37,32.92C67.26,34.81 63.33,39.4 61.09,43.75C59.94,45.99 59.97,46 67.46,46L75,46 75,38.5C75,34.38 74.66,31 74.25,31C73.84,31.01 72.09,31.87 70.37,32.92M81,38.5L81,46 88.5,46C92.63,46 96,45.62 96,45.15C96,43.33 90.29,35.93 87.04,33.53C81.59,29.51 81,30 81,38.5M56,35.96C52.21,37.98 44,44.74 44,45.83C44,46.2 46.14,46.35 48.75,46.17C53.42,45.84 53.56,45.74 56.72,39.92C58.5,36.66 59.85,34.02 59.72,34.04C59.6,34.07 57.92,34.93 56,35.96M97.23,35.75C98.07,36.71 99.73,39.41 100.9,41.75C102.96,45.84 103.22,46 107.71,46L112.37,46 109.44,42.87C104.56,37.66 92.97,30.9 97.23,35.75M81,61.5L81,71 91.64,71L102.29,71 101.66,65.25C101.31,62.09 100.55,57.81 99.97,55.75L98.91,52 89.95,52L81,52 81,61.5M105.46,53.75C105.83,54.71 106.65,58.99 107.27,63.25L108.41,71 115.29,71L122.18,71 121.47,66.75C121.08,64.41 119.88,60.14 118.81,57.25L116.86,52 110.82,52C105.48,52 104.86,52.2 105.46,53.75M11.42,59.34C11.14,60.07 13.29,71.43 16.2,84.59C22.25,111.87 22.46,112.21 29.38,105.12L33.24,101.17 39.37,104.51C48.54,109.52 56.68,111.37 69.5,111.37C86.95,111.37 101.88,106.1 113.3,95.92L118.9,90.93 116.24,95.72C110.22,106.54 97.34,115.23 82.39,118.56C75.01,120.2 61.59,120.17 51,118.49C47.73,117.97 47.86,118.13 53,120.92C61.53,125.55 68.39,127.24 78.5,127.19C93.72,127.12 106.2,121.71 117.31,110.4C122.93,104.68 129.56,91.94 131.01,84.11C132.17,77.78 132.33,67 131.25,67C130.84,67 129.24,68.99 127.71,71.42C122.52,79.64 115.66,84.61 104,88.61C99.78,90.06 95.83,90.48 87,90.41C74.38,90.32 67,88.54 58.43,83.51L53.78,80.79 58.6,75.89C62.82,71.61 63.24,70.82 61.96,69.56C60.64,68.26 17.75,58 13.65,58C12.71,58 11.71,58.6 11.42,59.34" fill="currentColor" fill-rule="evenodd"/>
</svg>